<?xml version="1.0" encoding="UTF-8"?>
<svg id="Layer_1" xmlns="http://www.w3.org/2000/svg" xmlns:xlink="http://www.w3.org/1999/xlink" viewBox="0 0 824 626.8">
  <defs>
    <style>
      .cls-1 {
        fill: none;
      }

      .cls-2 {
        clip-path: url(#clippath-1);
      }

      .cls-3 {
        fill: #303b56;
      }

      .cls-4 {
        fill: #24837a;
      }

      .cls-5 {
        clip-path: url(#clippath);
      }
    </style>
    <clipPath id="clippath">
      <rect class="cls-1" width="824" height="626.8"/>
    </clipPath>
    <clipPath id="clippath-1">
      <rect class="cls-1" width="824" height="626.8"/>
    </clipPath>
  </defs>
  <g class="cls-5">
    <g class="cls-2">
      <path class="cls-3" d="M645.84,215.21c0,61.99,33.45,74.02,83.27,103.34,49.82-29.32,83.27-41.35,83.27-103.34s-33.45-116.14-83.27-145.46c-49.82,29.32-83.27,83.47-83.27,145.46"/>
      <polygon class="cls-4" points="738.22 220.82 784.98 146.32 738.22 193.08 728.42 124.24 718.62 193.09 671.84 146.32 718.62 220.83 718.62 271.06 671.84 224.28 718.62 298.79 718.62 358.12 738.22 358.12 738.22 298.78 784.98 224.28 738.22 271.05 738.22 220.82"/>
      <g>
        <path class="cls-3" d="M319.24,535.4c0-4.76,3-7.46,8.13-7.46s8.46,3.26,8.46,8.96h-3.55c0-3.64-1.87-5.55-4.91-5.55s-4.58,1.42-4.58,4.05c0,6.52,13.33,2.44,13.33,12.18,0,4.95-3.29,7.72-8.57,7.72s-8.68-3.3-8.68-9.22h3.55c0,3.97,2.05,5.73,5.13,5.73,2.86,0,4.98-1.39,4.98-4.16,0-6.37-13.29-2.44-13.29-12.25"/>
        <path class="cls-3" d="M339.71,546.94v-5.25c0-5.4,2.71-8.21,6.66-8.21,3.15,0,5.02,1.87,5.6,3.22v-2.92h3.22v21.06h-3.22v-2.89c-.59,1.39-2.46,3.22-5.6,3.22-4.1,0-6.66-2.92-6.66-8.25M351.8,546.45v-4.46c0-3.67-1.61-5.58-4.32-5.58s-4.32,1.98-4.32,5.73v4.31c0,3.82,1.46,5.81,4.32,5.81s4.32-2.02,4.32-5.81"/>
        <rect class="cls-3" x="359.96" y="526.67" width="3.44" height="28.18"/>
        <path class="cls-3" d="M371.2,533.79v13.98c0,2.85,2.05,4.27,4.36,4.27s4.32-1.58,4.32-4.27v-13.98h3.44v13.49c0,4.8-3.08,7.94-7.76,7.94s-7.77-3.15-7.77-7.94v-13.49h3.41Z"/>
        <path class="cls-3" d="M387.13,546.94v-5.25c0-5.25,2.56-8.17,6.7-8.17,3.11,0,4.65,1.46,5.24,2.85v-9.71h3.59v28.18h-3.22v-2.89c-.77,1.54-2.16,3.22-5.6,3.22-4.14,0-6.7-2.88-6.7-8.24M399.26,546.49v-4.5c0-3.64-1.61-5.55-4.32-5.55-2.89,0-4.36,2.1-4.36,5.73v4.31c0,3.75,1.5,5.81,4.36,5.81s4.32-2.02,4.32-5.81"/>
        <path class="cls-3" d="M419.06,528.43v17.73c0,3.86,2.46,5.51,5.02,5.51,2.78,0,5.05-1.87,5.05-5.51v-17.73h3.59v17.61c0,5.4-3.59,9.14-8.64,9.14s-8.61-3.75-8.61-9.14v-17.61h3.59Z"/>
        <path class="cls-3" d="M446.68,533.52v3.49h-.4c-3.37,0-5.38,1.91-5.38,5.66v12.18h-3.41v-21.06h3.22v3.82c.44-1.8,2.34-4.08,5.35-4.08h.62Z"/>
        <path class="cls-3" d="M453.59,551.96v2.89h-3.22v-28.18h3.41v9.71c.58-1.39,2.31-2.85,5.42-2.85,4.14,0,6.7,2.92,6.7,8.17v5.25c0,5.36-2.56,8.24-6.7,8.24-3.34,0-4.73-1.46-5.61-3.22M462.46,546.49v-4.31c0-3.63-1.47-5.73-4.36-5.73-2.71,0-4.32,1.91-4.32,5.55v4.5c0,3.79,1.54,5.81,4.32,5.81s4.36-2.06,4.36-5.81"/>
        <path class="cls-3" d="M469.56,546.94v-5.25c0-5.4,2.71-8.21,6.66-8.21,3.15,0,5.02,1.87,5.6,3.22v-2.92h3.22v21.06h-3.22v-2.89c-.59,1.39-2.46,3.22-5.6,3.22-4.1,0-6.66-2.92-6.66-8.25M481.64,546.45v-4.46c0-3.67-1.61-5.58-4.32-5.58s-4.32,1.98-4.32,5.73v4.31c0,3.82,1.46,5.81,4.32,5.81s4.32-2.02,4.32-5.81"/>
        <path class="cls-3" d="M501.9,554.85v-12.74c0-3.52-1.1-5.66-4.36-5.66s-4.32,1.84-4.32,5.85v12.55h-3.41v-21.06h3.22v2.96c.59-1.39,2.49-3.22,5.61-3.22,4.14,0,6.7,2.92,6.7,8.17v13.15h-3.44Z"/>
        <path class="cls-3" d="M509.18,546.94v-5.25c0-5.4,2.71-8.21,6.66-8.21,3.15,0,5.02,1.87,5.6,3.22v-2.92h3.22v21.06h-3.22v-2.89c-.59,1.39-2.46,3.22-5.6,3.22-4.1,0-6.66-2.92-6.66-8.25M521.27,546.45v-4.46c0-3.67-1.61-5.58-4.32-5.58s-4.32,1.98-4.32,5.73v4.31c0,3.82,1.46,5.81,4.32,5.81s4.32-2.02,4.32-5.81"/>
      </g>
      <polygon class="cls-3" points="299.62 561.73 302.07 554.57 295.04 533.63 298.85 533.63 303.87 549.85 308.92 533.63 312.66 533.63 303.17 561.73 299.62 561.73"/>
      <g>
        <path class="cls-3" d="M40.91,545.48c0,5.77-3.19,9.97-8.64,9.97-5.09,0-8.61-3.79-8.61-9.18v-8.96c0-5.4,3.52-9.15,8.61-9.15,5.35,0,8.64,4.12,8.64,9.75h-3.59c-.11-3.23-1.5-6.19-5.05-6.19-2.53,0-5.02,1.65-5.02,5.47v9.18c0,3.64,2.2,5.51,5.02,5.51,3.88,0,5.05-3.45,5.05-6.41h3.59Z"/>
        <path class="cls-3" d="M44.39,547.17v-5.25c0-5.4,2.71-8.21,6.66-8.21,3.15,0,5.02,1.87,5.6,3.22v-2.92h3.22v21.06h-3.22v-2.89c-.59,1.39-2.46,3.22-5.6,3.22-4.1,0-6.66-2.92-6.66-8.25M56.47,546.68v-4.46c0-3.67-1.61-5.58-4.32-5.58s-4.32,1.98-4.32,5.73v4.31c0,3.82,1.46,5.81,4.32,5.81s4.32-2.02,4.32-5.81"/>
        <path class="cls-3" d="M67.86,534.01v2.47c.51-1.09,1.94-2.74,4.69-2.74,2.2,0,4.1,1.09,5.12,3.37.7-1.73,2.67-3.37,5.53-3.37,3.59,0,5.53,2.74,5.53,7.46v13.86h-3.44v-14.5c0-2.59-1.17-4.05-3.44-4.05s-3.44,1.39-3.44,3.9v14.65h-3.44v-14.5c0-2.74-1.28-4.05-3.44-4.05s-3.48,1.35-3.48,3.9v14.65h-3.41v-21.06h3.22Z"/>
        <path class="cls-3" d="M96.35,552.19v2.89h-3.22v-28.18h3.41v9.71c.58-1.39,2.31-2.85,5.42-2.85,4.14,0,6.7,2.92,6.7,8.17v5.25c0,5.36-2.56,8.24-6.7,8.24-3.34,0-4.73-1.46-5.61-3.22M105.21,546.72v-4.31c0-3.63-1.47-5.73-4.36-5.73-2.71,0-4.32,1.91-4.32,5.55v4.5c0,3.79,1.54,5.81,4.32,5.81s4.36-2.06,4.36-5.81"/>
        <path class="cls-3" d="M114.47,530.94c-1.21,0-2.16-.98-2.16-2.21s.95-2.21,2.16-2.21,2.16.97,2.16,2.21-.95,2.21-2.16,2.21M112.75,534.01h3.41v21.06h-3.41v-21.06Z"/>
        <path class="cls-3" d="M120.3,547.06v-4.98c0-5.02,2.82-8.28,7.77-8.28s7.72,3.26,7.72,8.28v4.98c0,5.17-2.89,8.39-7.72,8.39s-7.77-3.22-7.77-8.39M123.7,541.66v5.85c0,3.11,1.72,4.76,4.36,4.76s4.32-1.65,4.32-4.76v-5.85c0-3.04-1.76-4.68-4.32-4.68s-4.36,1.65-4.36,4.68"/>
        <path class="cls-3" d="M164.93,545.48c0,5.77-3.19,9.97-8.64,9.97-5.09,0-8.61-3.79-8.61-9.18v-8.96c0-5.4,3.52-9.15,8.61-9.15,5.35,0,8.64,4.12,8.64,9.75h-3.59c-.11-3.23-1.5-6.19-5.05-6.19-2.53,0-5.02,1.65-5.02,5.47v9.18c0,3.64,2.2,5.51,5.02,5.51,3.88,0,5.05-3.45,5.05-6.41h3.59Z"/>
        <rect class="cls-3" x="168.96" y="526.9" width="3.44" height="28.18"/>
        <path class="cls-3" d="M178.78,530.94c-1.21,0-2.16-.98-2.16-2.21s.95-2.21,2.16-2.21,2.16.97,2.16,2.21-.95,2.21-2.16,2.21M177.05,534.01h3.41v21.06h-3.41v-21.06Z"/>
        <path class="cls-3" d="M188.37,534.01v2.47c.51-1.09,1.94-2.74,4.69-2.74,2.2,0,4.1,1.09,5.12,3.37.7-1.73,2.67-3.37,5.53-3.37,3.59,0,5.53,2.74,5.53,7.46v13.86h-3.44v-14.5c0-2.59-1.17-4.05-3.44-4.05s-3.44,1.39-3.44,3.9v14.65h-3.44v-14.5c0-2.74-1.28-4.05-3.44-4.05s-3.48,1.35-3.48,3.9v14.65h-3.41v-21.06h3.22Z"/>
        <path class="cls-3" d="M213.09,547.17v-5.25c0-5.4,2.71-8.21,6.67-8.21,3.15,0,5.02,1.88,5.6,3.22v-2.92h3.22v21.06h-3.22v-2.88c-.58,1.39-2.45,3.22-5.6,3.22-4.1,0-6.67-2.92-6.67-8.25M225.17,546.68v-4.46c0-3.67-1.61-5.58-4.32-5.58s-4.32,1.99-4.32,5.73v4.31c0,3.82,1.46,5.81,4.32,5.81s4.32-2.02,4.32-5.81M218.25,531.28l2.6-5.88h3.73l-3.63,5.88h-2.71Z"/>
        <path class="cls-3" d="M241.87,537.05h-4.51v9.71c0,4.95.18,5.58,4.69,5.32v3.19c-.7.07-1.35.11-1.94.11-5.31,0-6.19-3.11-6.19-8.13v-10.19h-2.05l-.04-2.66c2.31,0,3.41-1.12,3.41-4.57h2.12v4.23h4.51v3Z"/>
        <path class="cls-3" d="M247.32,530.94c-1.21,0-2.16-.98-2.16-2.21s.95-2.21,2.16-2.21,2.16.97,2.16,2.21-.95,2.21-2.16,2.21M245.61,534.01h3.41v21.06h-3.41v-21.06Z"/>
        <path class="cls-3" d="M265.23,542.22c0-3.45-1.39-5.21-4.32-5.21s-4.36,1.65-4.36,5.58v4.61c0,3.07,1.43,5.02,4.36,5.02s4.32-1.8,4.32-5.25h3.41c0,5.25-2.75,8.47-7.73,8.47s-7.76-3.22-7.76-8.28v-5.02c0-5.17,2.86-8.39,7.76-8.39s7.73,3.11,7.73,8.47h-3.41Z"/>
        <path class="cls-3" d="M272.11,547.06v-4.98c0-5.02,2.82-8.28,7.77-8.28s7.72,3.26,7.72,8.28v4.98c0,5.17-2.89,8.39-7.72,8.39s-7.77-3.22-7.77-8.39M275.52,541.66v5.85c0,3.11,1.72,4.76,4.36,4.76s4.32-1.65,4.32-4.76v-5.85c0-3.04-1.76-4.68-4.32-4.68s-4.36,1.65-4.36,4.68"/>
      </g>
      <path class="cls-3" d="M550.47,544.73h-12.09v2.36c0,3,1.9,4.65,4.36,4.65s4.32-1.61,4.32-3.93v-.34h3.41v.15c0,3.86-2.86,7.04-7.72,7.04s-7.77-3.22-7.77-8.28v-5.1c0-5.13,2.86-8.36,7.77-8.36s7.72,3,7.72,8.17v3.63ZM538.38,542.18h8.68v-1.31c0-3.48-1.65-4.98-4.32-4.98s-4.36,1.61-4.36,4.69v1.61Z"/>
      <path class="cls-3" d="M566.58,554.29v-12.74c0-3.52-1.1-5.66-4.36-5.66s-4.32,1.84-4.32,5.85v12.55h-3.41v-21.06h3.22v2.96c.59-1.39,2.49-3.22,5.61-3.22,4.14,0,6.7,2.92,6.7,8.17v13.15h-3.44Z"/>
      <path class="cls-3" d="M597.38,554.29l-1.76-5.96h-9.6l-1.79,5.96h-3.74l8.39-26.42h4.03l8.24,26.42h-3.77ZM586.94,545.15h7.8l-3.85-13.23-3.95,13.23Z"/>
      <path class="cls-3" d="M607.15,533.23v2.47c.51-1.09,1.94-2.73,4.69-2.73,2.2,0,4.1,1.09,5.12,3.37.7-1.73,2.67-3.37,5.53-3.37,3.59,0,5.53,2.73,5.53,7.46v13.86h-3.44v-14.5c0-2.59-1.17-4.05-3.44-4.05s-3.44,1.39-3.44,3.9v14.65h-3.44v-14.5c0-2.74-1.28-4.05-3.44-4.05s-3.48,1.35-3.48,3.9v14.65h-3.41v-21.06h3.22Z"/>
      <path class="cls-3" d="M647.36,544.73h-12.09v2.36c0,3,1.91,4.65,4.36,4.65s4.32-1.61,4.32-3.93v-.34h3.4v.15c0,3.86-2.86,7.05-7.72,7.05s-7.76-3.22-7.76-8.28v-5.1c0-5.14,2.86-8.36,7.76-8.36s7.72,3,7.72,8.17v3.64ZM635.27,542.19h8.68v-1.31c0-3.49-1.65-4.98-4.32-4.98s-4.36,1.61-4.36,4.68v1.61ZM638.06,530.49l2.6-5.88h3.74l-3.63,5.88h-2.71Z"/>
      <path class="cls-3" d="M660.58,532.97v3.49h-.4c-3.37,0-5.39,1.91-5.39,5.66v12.18h-3.41v-21.06h3.22v3.82c.44-1.8,2.34-4.08,5.35-4.08h.62Z"/>
      <path class="cls-3" d="M665.89,530.15c-1.21,0-2.16-.97-2.16-2.21s.95-2.21,2.16-2.21,2.16.97,2.16,2.21-.95,2.21-2.16,2.21M664.17,533.23h3.41v21.06h-3.41v-21.06Z"/>
      <path class="cls-3" d="M683.8,541.44c0-3.45-1.39-5.21-4.32-5.21s-4.36,1.65-4.36,5.58v4.61c0,3.07,1.43,5.02,4.36,5.02s4.32-1.8,4.32-5.25h3.41c0,5.25-2.75,8.47-7.73,8.47s-7.76-3.22-7.76-8.28v-5.02c0-5.17,2.86-8.39,7.76-8.39s7.73,3.11,7.73,8.47h-3.41Z"/>
      <path class="cls-3" d="M690.68,546.38v-5.25c0-5.4,2.71-8.21,6.66-8.21,3.15,0,5.02,1.87,5.6,3.22v-2.92h3.22v21.06h-3.22v-2.89c-.59,1.39-2.46,3.22-5.6,3.22-4.1,0-6.66-2.92-6.66-8.25M702.76,545.89v-4.46c0-3.67-1.61-5.58-4.32-5.58s-4.32,1.98-4.32,5.73v4.31c0,3.82,1.47,5.81,4.32,5.81s4.32-2.02,4.32-5.81"/>
      <polygon class="cls-3" points="722.94 527.87 722.94 550.73 732.87 550.73 732.87 554.29 719.35 554.29 719.35 527.87 722.94 527.87"/>
      <path class="cls-3" d="M734.18,546.38v-5.25c0-5.4,2.71-8.21,6.66-8.21,3.15,0,5.02,1.87,5.6,3.22v-2.92h3.22v21.06h-3.22v-2.89c-.59,1.39-2.46,3.22-5.6,3.22-4.1,0-6.66-2.92-6.66-8.25M746.27,545.89v-4.46c0-3.67-1.61-5.58-4.32-5.58s-4.32,1.98-4.32,5.73v4.31c0,3.82,1.47,5.81,4.32,5.81s4.32-2.02,4.32-5.81"/>
      <path class="cls-3" d="M762.96,536.26h-4.51v9.71c0,4.95.18,5.58,4.69,5.32v3.19c-.7.07-1.35.11-1.94.11-5.31,0-6.19-3.11-6.19-8.13v-10.19h-2.05l-.04-2.66c2.31,0,3.41-1.12,3.41-4.57h2.12v4.23h4.51v3Z"/>
      <path class="cls-3" d="M768.42,530.15c-1.21,0-2.16-.97-2.16-2.21s.95-2.21,2.16-2.21,2.16.97,2.16,2.21-.95,2.21-2.16,2.21M766.7,533.23h3.41v21.06h-3.41v-21.06Z"/>
      <path class="cls-3" d="M786.88,554.29v-12.74c0-3.52-1.1-5.66-4.36-5.66s-4.32,1.84-4.32,5.85v12.55h-3.41v-21.06h3.22v2.96c.59-1.39,2.49-3.22,5.61-3.22,4.14,0,6.7,2.92,6.7,8.17v13.15h-3.44Z"/>
      <path class="cls-3" d="M794.16,546.38v-5.25c0-5.4,2.71-8.21,6.66-8.21,3.15,0,5.02,1.87,5.6,3.22v-2.92h3.22v21.06h-3.22v-2.89c-.58,1.39-2.46,3.22-5.6,3.22-4.1,0-6.66-2.92-6.66-8.25M806.25,545.89v-4.46c0-3.67-1.61-5.58-4.32-5.58s-4.32,1.98-4.32,5.73v4.31c0,3.82,1.47,5.81,4.32,5.81s4.32-2.02,4.32-5.81"/>
      <polygon class="cls-3" points="151.47 259.68 160.13 311.66 143.6 311.66 151.47 259.68"/>
      <polygon class="cls-3" points="506.9 259.68 515.56 311.66 499.02 311.66 506.9 259.68"/>
      <path class="cls-3" d="M367.53,289.87h-17.21v-36.69h17.21c2.89,0,5.23,2.34,5.23,5.23v26.23c0,2.89-2.34,5.23-5.23,5.23"/>
      <path class="cls-3" d="M442.72,284.41h-15.43v-31.23h15.43c2.03,0,3.68,1.65,3.68,3.68v23.87c0,2.03-1.65,3.68-3.68,3.68"/>
      <path class="cls-3" d="M442.72,336.64h-15.43v-34.71h15.43c2.03,0,3.68,1.65,3.68,3.68v27.36c0,2.03-1.65,3.68-3.68,3.68"/>
      <polygon class="cls-3" points="759.6 442.4 772.01 442.4 765.74 400.58 759.6 442.4"/>
      <path class="cls-3" d="M631.05,359.09V72.13l-38.98-47.51h-14.37v433.52h24.23v19.95h-45.91V110.45l-22.22-17.72-33.73-10.9-3.68-14.44h-8.66v-13.39h-7.88v-15.49h-12.6v-7.88s-28.61-9.19-57.22.53l-2.36,7.35h-9.97v15.22h-9.19v13.91h-3.94v43.58h-18.37V41.41l-51.91-14.96v306.48c0,11.95-9.69,21.64-21.64,21.64h-15.18c-11.95,0-21.64-9.69-21.64-21.64v-98.05h19.1v93.48c0,5.46,4.42,9.88,9.88,9.88s9.88-4.42,9.88-9.88v-1.61l-.13-299.77h-44.1l-12.08,13.12v138.08h-21.52V27.5h-47.25l-4.73,38.24v171.44l22.05,116.94h-19.69l-6.3-26.27h-18.5l-6.3,26.27h-18.9l21.92-116.94V43.78l-60.38-19.16-55.82,19.16v455.63h786.01v-140.31h-177.9ZM591.75,118.34h-10.67v-9.01h10.67v9.01ZM591.75,103.77h-10.67v-9.01h10.67v9.01ZM591.75,90.25h-10.67v-9.01h10.67v9.01ZM591.75,63.94h-10.67v-9.01h10.67v9.01ZM591.75,53.42h-10.67v-9.01h10.67v9.01ZM127.85,55.26l7.68-1.51v18.83l-7.68,1.45v-18.77ZM127.85,81.64l7.68-1.51v18.83l-7.68,1.44v-18.77ZM127.85,108.68l7.68-1.51v18.83l-7.68,1.44v-18.77ZM127.85,133.75l7.68-1.51v18.83l-7.68,1.44v-18.77ZM114.72,84.73l7.68-1.51v18.83l-7.68,1.44v-18.77ZM114.72,111.76l7.68-1.51v18.83l-7.68,1.45v-18.77ZM101.73,133.09v-18.77l7.68-1.51v18.83l-7.68,1.45ZM109.41,137.88v18.83l-7.68,1.44v-18.77l7.68-1.51ZM100.22,61.36l7.68-1.51v18.83l-7.68,1.44v-18.77ZM86.5,63.99l7.68-1.51v18.83l-7.68,1.44v-18.77ZM86.5,90.37l7.68-1.51v18.83l-7.68,1.44v-18.77ZM86.5,117.41l7.68-1.51v18.83l-7.68,1.44v-18.77ZM112.42,330.4c-.29,13.43-11.26,24.17-24.7,24.17h-10.38c-13.64,0-24.7-11.06-24.7-24.7v-19.79h20.08l.33,19.31s-1.12,10.02,9.78,10.02c5.4,0,9.78-4.38,9.78-9.78v-10.75c0-5.08-2.56-9.82-6.81-12.6l-21.65-11.5c-7.18-4.7-11.51-12.71-11.51-21.29v-13.91c0-13.64,11.06-24.7,24.7-24.7h9.86c13.64,0,24.7,11.06,24.7,24.7v19.01h-19.49l-.12-16.65c-.04-5.59-4.58-10.11-10.18-10.11s-10.18,4.56-10.18,10.18v6.55c0,4.86,2.62,9.34,6.85,11.72l19.72,11.09c8.86,4.98,14.28,14.41,14.12,24.57l-.21,14.47ZM114.72,136.83l7.68-1.51v18.83l-7.68,1.44v-18.77ZM274.85,71.34h7.22v11.3h-7.22v-11.3ZM273.4,113.47h7.22v13.13h-7.22v-13.13ZM262.77,54.01h7.22v11.3h-7.22v-11.3ZM250.3,40.61h7.22v11.3h-7.22v-11.3ZM174.7,43.59h37.65v7.4h-37.65v-7.4ZM174.7,79.51h37.65v7.4h-37.65v-7.4ZM246.17,354.57h-49.41v-119.7h18.9v101.78h30.52v17.91ZM253.91,126.6h-7.22v-13.13h7.22v13.13ZM253.91,108.09h-7.22v-13.13h7.22v13.13ZM253.91,88.14h-7.22v-13.13h7.22v13.13ZM376.3,354.57l-16.14-46.86h-9.45v46.4h-20.08v-116.94h40.86c10.49,0,18.99,8.51,18.99,18.99v33.21c0,7.17-5.09,13.14-11.86,14.5-.95.19,17.77,50.69,17.77,50.69h-20.08ZM446.62,56.82h14.73v30.1h-14.73v-30.1ZM446.62,100.33h14.73v30.1h-14.73v-30.1ZM446.62,142.54h14.73v30.1h-14.73v-30.1ZM414.73,56.82h14.73v30.1h-14.73v-30.1ZM414.73,100.33h14.73v30.1h-14.73v-30.1ZM466.47,262.8v14.06c0,8.89-7.2,16.09-16.09,16.09h1.87c7.85,0,14.22,6.37,14.22,14.22v22.62c0,13.69-11.09,24.78-24.78,24.78h-34.48v-118.52h35.81c12.95,0,23.45,10.5,23.45,23.45v3.3ZM494.3,236.06h25.46l22.84,118.52h-20.21l-3.94-26.77h-21.79l-4.46,26.77h-20.21l22.31-118.52ZM544.75,411.83h-20.46v-9.72c0-2.39-.13-4.62-.38-6.71-.26-2.09-.96-3.79-2.12-5.12-1.15-1.32-3.13-1.98-5.94-1.98s-4.86.68-6.14,2.05c-1.27,1.37-2.08,3.13-2.43,5.31-.34,2.17-.51,4.58-.51,7.23v47.06c0,2.9.23,5.43.7,7.61.46,2.17,1.36,3.84,2.68,4.99,1.32,1.15,3.22,1.73,5.69,1.73,2.73,0,4.67-.66,5.82-1.99,1.15-1.32,1.87-3.09,2.17-5.3.3-2.22.45-4.56.45-7.04v-10.11h20.46v8.57c0,6.05-.86,11.41-2.56,16.05-1.71,4.65-4.65,8.31-8.82,11-4.18,2.69-10.06,4.03-17.65,4.03s-13.75-1.45-18.23-4.35c-4.47-2.9-7.61-6.93-9.4-12.09-1.79-5.16-2.69-11.15-2.69-17.97v-37.22c0-7.16.89-13.32,2.69-18.48,1.79-5.16,4.92-9.14,9.4-11.96,4.48-2.81,10.55-4.22,18.23-4.22s13.24,1.24,17.45,3.71c4.22,2.47,7.21,5.97,8.95,10.48,1.75,4.52,2.62,9.77,2.62,15.73v8.7ZM634.27,478.08h-20.98v-103.59h20.98v103.59ZM708.44,478.08l-1.66-70.21-13.17,70.21h-13.17l-13.81-70.73-1.41,70.73h-15.47l1.79-103.59h22.38l12.79,65.35,13.68-65.35h21.61l1.79,103.59h-15.35ZM777.76,478.08l-3.71-22.76h-16.37l-3.96,22.76h-19.83l20.08-103.59h23.4l19.95,103.59h-19.56Z"/>
    </g>
  </g>
</svg>